<svg width="331" height="303" viewBox="0 0 331 303" fill="none" xmlns="http://www.w3.org/2000/svg">
<g clip-path="url(#clip0_7549_2460)">
<path d="M211.923 241.282L215.095 248.393C212.517 247.982 210.12 250.184 210.066 253.011C210.012 255.838 212.311 258.779 214.889 259.181C214.396 261.376 212.27 262.344 210.425 263.231C208.58 264.118 206.591 265.589 206.728 267.928C206.838 269.806 208.391 271.464 210.04 272.131C211.689 272.797 213.42 272.695 215.09 272.583C212.559 275.23 212.312 280.207 214.535 283.777C216.758 287.347 221.196 289.104 224.52 287.73C222.172 290.652 222.682 296.001 225.596 299.016C228.534 302.055 232.792 302.349 236.515 302.029C245.994 301.228 255.026 297.648 262.481 291.739C265.326 289.478 267.984 286.818 269.608 283.35C271.231 279.881 271.709 275.489 270.197 271.541C270.605 276.486 275.554 280.392 280.007 280.611C284.46 280.829 288.347 278.321 291.651 275.461C296.044 271.658 300.112 266.327 299.509 259.749C299.21 256.493 297.788 253.361 296.393 250.327L293.688 244.446C292.596 242.072 291.48 239.657 289.837 237.665C288.193 235.672 285.912 234.13 283.63 234.145C284.152 231.76 284.676 229.287 284.238 226.754C283.801 224.22 282.126 221.597 279.849 221.004C276.95 220.249 274.493 222.924 271.579 222.672C268.773 222.429 266.455 219.614 263.731 218.499C262.61 218.014 261.371 217.866 260.167 218.074C258.963 218.283 257.846 218.838 256.953 219.671C255.226 221.357 254.506 224.205 255.126 226.9C255.669 229.26 257.113 231.342 257.99 233.619C258.867 235.896 259.003 238.823 257.319 240.067C255.287 241.567 252.194 239.525 250.606 237.055C249.019 234.585 248.107 231.594 246.1 229.517C243.731 227.065 240.022 226.491 237.582 228.197C235.143 229.904 234.21 233.726 235.44 236.975C236.445 239.632 238.749 242.319 237.95 244.821C237.105 247.465 233.411 247.13 231.182 245.261C228.953 243.393 227.474 240.578 225.272 238.668C223.036 236.728 220.117 235.878 217.553 236.421C216.253 236.722 215.05 237.346 214.055 238.236C213.059 239.125 212.304 240.251 211.859 241.509" fill="#E6E6E6"/>
<path d="M263.264 221.301L256.685 224.358C255.696 224.846 254.574 224.997 253.491 224.788C252.536 224.563 251.89 223.979 251.721 223.186L250.19 216.035C249.901 214.686 251.018 213.09 252.846 212.241L256.479 210.552C258.308 209.703 260.248 209.878 261.092 210.969L265.57 216.751C266.067 217.392 266.097 218.262 265.653 219.138C265.114 220.1 264.275 220.86 263.264 221.301Z" fill="#3F3D56"/>
<path d="M59.2434 89.1399C65.4291 72.2099 75.0822 56.7582 87.5845 43.7743C98.1917 32.763 114.7 33.2205 114.7 33.2205L114.794 33.1035C118.768 28.2039 124.099 24.5868 130.12 22.7059C136.141 20.825 142.584 20.764 148.639 22.5307C150.213 22.9823 151.424 23.1825 152 22.9814C162.498 19.3073 162.004 11.0146 171.062 4.33412C186.92 -7.36308 239.522 6.03583 246.939 27.5601C252.95 45.005 279.785 53.4604 289.81 66.8043C291.378 68.8908 292.916 71.0015 294.424 73.1363C295.132 74.1281 295.831 75.1274 296.522 76.1341C303.625 86.4204 309.997 97.1925 315.592 108.371C319.26 115.675 322.449 123.21 325.136 130.928C335.592 161.493 332.016 184.265 303.188 178.639C299.775 177.971 296.445 177.374 293.196 176.847C288.492 176.079 283.952 175.448 279.575 174.954C273.683 174.284 268.076 173.845 262.756 173.637C260.968 173.565 259.212 173.517 257.489 173.492C232.011 173.139 213.113 177.934 198.716 185.377C196.276 186.636 193.963 187.968 191.778 189.372C188.441 191.505 185.254 193.866 182.241 196.437C178.071 200.015 174.226 203.955 170.75 208.211L170.559 208.444C153.72 229.042 148.178 251.844 136.465 255.859C86.3932 273.025 54.7249 210.8 51.4773 149.93C51.3133 146.863 51.2227 143.804 51.2055 140.755C51.1954 139.392 51.2021 138.032 51.2256 136.676C51.277 133.139 51.433 129.624 51.6941 126.152C51.7916 124.824 51.9048 123.504 52.0335 122.19C52.1753 120.774 52.3297 119.366 52.508 117.967C53.7818 107.711 56.0101 97.9526 59.2434 89.1399Z" fill="url(#paint0_linear_7549_2460)"/>
<path d="M214.441 122.63C210.442 124.492 210.376 132.831 211.63 135.533L213.902 140.423L228.387 133.694L226.114 128.803C224.858 126.102 218.443 120.774 214.441 122.63Z" fill="#3F3D56"/>
<path d="M175.517 192.847C175.262 192.847 175.011 192.785 174.785 192.668C174.559 192.55 174.365 192.379 174.219 192.171C174.073 191.962 173.979 191.721 173.946 191.468C173.913 191.215 173.941 190.958 174.029 190.719C174.1 190.523 174.209 190.344 174.349 190.19C174.49 190.037 174.66 189.914 174.849 189.826L249.651 155.073C249.84 154.985 250.044 154.935 250.251 154.926C250.459 154.918 250.667 154.95 250.862 155.021C251.057 155.093 251.237 155.202 251.39 155.342C251.543 155.483 251.667 155.653 251.754 155.841C251.931 156.222 251.949 156.657 251.805 157.052C251.661 157.446 251.366 157.767 250.986 157.944H250.985L176.183 192.698C175.975 192.796 175.747 192.847 175.517 192.847Z" fill="#3F3D56"/>
<path d="M234.029 136.813L212.647 146.747L246.188 218.938L267.57 209.004L234.029 136.813Z" fill="#E6E6E6"/>
<path d="M153.763 45.9363C149.764 47.7981 149.699 56.1371 150.952 58.8391L153.225 63.7298L167.709 57.0001L165.437 52.1094C164.181 49.4085 157.765 44.0809 153.763 45.9363Z" fill="#3F3D56"/>
<path d="M243.361 229.6L236.782 232.657C235.793 233.145 234.671 233.296 233.588 233.087C232.633 232.862 231.987 232.278 231.818 231.485L230.287 224.334C229.997 222.985 231.115 221.389 232.943 220.54L236.576 218.851C238.405 218.002 240.345 218.177 241.189 219.268L245.667 225.05C246.163 225.691 246.194 226.561 245.75 227.437C245.211 228.399 244.372 229.159 243.361 229.6Z" fill="#3F3D56"/>
<path d="M223.132 239.636L216.552 242.693C215.563 243.182 214.442 243.333 213.359 243.124C212.403 242.898 211.758 242.314 211.588 241.521L210.057 234.37C209.768 233.021 210.885 231.425 212.714 230.576L216.347 228.888C218.175 228.038 220.116 228.214 220.96 229.305L225.438 235.086C225.934 235.727 225.964 236.597 225.521 237.473C224.982 238.436 224.143 239.195 223.132 239.636Z" fill="#3F3D56"/>
<path d="M179.057 72.3989L157.675 82.3332L225.474 228.259L246.856 218.325L179.057 72.3989Z" fill="#E6E6E6"/>
<path d="M201.243 147.623L198.843 142.344L200.224 141.707L202.616 146.969L237.252 223.765L235.872 224.406" fill="#3F3D56"/>
<path d="M228.303 143.235L225.904 137.956L227.285 137.319L229.677 142.581L264.313 219.377L262.933 220.018" fill="#3F3D56"/>
<path d="M189.149 84.077L160.177 97.5376C158.333 94.668 152.773 79.9628 154.021 75.5998L153.084 71.4392L173.088 62.1449L175.766 65.4387C179.74 66.6583 187.478 80.4705 189.149 84.077Z" fill="#E6E6E6"/>
<path d="M173.924 62.3229L153.281 71.914C152.519 72.268 151.708 72.1379 151.468 71.6233C151.434 71.5491 151.413 71.4696 151.406 71.3882L150.337 59.9906C150.291 59.5026 150.709 58.9495 151.347 58.6531L165.037 52.2926C165.675 51.9962 166.367 52.0338 166.71 52.3835L174.732 60.5506C175.142 60.9683 174.919 61.6833 174.234 62.1476C174.136 62.2142 174.032 62.2729 173.924 62.3229Z" fill="#E6E6E6"/>
<path d="M190.115 151.619C189.892 151.62 189.669 151.593 189.452 151.541C189.146 151.477 188.858 151.345 188.611 151.153C188.364 150.961 188.164 150.715 188.027 150.434L175.406 123.27C174.884 122.146 175.585 120.708 176.969 120.065L195.45 111.478C196.834 110.835 198.385 111.227 198.908 112.351L211.528 139.515C211.655 139.802 211.714 140.113 211.701 140.425C211.688 140.738 211.604 141.043 211.455 141.318C211.131 141.94 210.606 142.435 209.965 142.721L191.485 151.307C191.057 151.509 190.589 151.616 190.115 151.619Z" fill="#3F3D56"/>
<path d="M192.643 155.731L171.261 165.665L204.802 237.856L226.184 227.922L192.643 155.731Z" fill="#E6E6E6"/>
<path d="M166.301 63.5137L160.03 66.427C158.82 66.9891 157.188 66.0524 156.392 64.339C155.596 62.6257 155.933 60.774 157.143 60.2118L163.413 57.2985C164.623 56.7363 166.255 57.6731 167.051 59.3864C167.847 61.0998 167.511 62.9515 166.301 63.5137Z" fill="#3F3D56"/>
<path d="M173.472 141.354C169.473 143.216 169.407 151.555 170.661 154.257L172.933 159.148L187.418 152.418L185.145 147.527C183.889 144.826 177.473 139.499 173.472 141.354Z" fill="#3F3D56"/>
<path d="M107.046 124.709C105.634 125.65 104.188 123.41 105.628 122.511C107.04 121.57 108.485 123.809 107.046 124.709Z" fill="#E6E6E6"/>
<path d="M254.051 92.5284C252.639 93.4693 251.193 91.2298 252.633 90.3306C254.045 89.3896 255.49 91.6292 254.051 92.5284Z" fill="#E6E6E6"/>
<path d="M153.854 118.126C152.441 119.067 150.996 116.828 152.435 115.928C153.847 114.988 155.293 117.227 153.854 118.126Z" fill="#E6E6E6"/>
<path d="M107.046 205.89C105.634 206.831 104.188 204.592 105.628 203.693C107.04 202.752 108.485 204.991 107.046 205.89Z" fill="#E6E6E6"/>
<path d="M179.086 22.6827C177.673 23.6237 176.228 21.3841 177.667 20.4849C179.08 19.544 180.525 21.7836 179.086 22.6827Z" fill="#E6E6E6"/>
<path d="M109.606 65.8335C108.193 66.7744 106.748 64.5348 108.187 63.6356C109.6 62.6947 111.045 64.9343 109.606 65.8335Z" fill="#E6E6E6"/>
<path d="M209.539 53.463L208.641 53.2659L208.838 52.367L208.239 52.2358L208.041 53.1346L207.143 52.9379L207.012 53.5369L207.91 53.734L207.713 54.6325L208.312 54.7637L208.51 53.8649L209.408 54.062L209.539 53.463Z" fill="#E6E6E6"/>
<path d="M63.2301 128.347L62.3316 128.15L62.5284 127.251L61.9294 127.12L61.7323 128.019L60.8334 127.822L60.7021 128.421L61.601 128.618L61.4043 129.517L62.0033 129.648L62.2004 128.749L63.0988 128.946L63.2301 128.347Z" fill="#E6E6E6"/>
<path d="M247.494 166.546C246.746 166.892 245.891 166.928 245.117 166.645C244.343 166.362 243.713 165.784 243.365 165.037L239.667 157.077C239.321 156.33 239.286 155.476 239.569 154.702C239.852 153.929 240.431 153.299 241.178 152.952C241.925 152.605 242.779 152.569 243.553 152.851C244.327 153.133 244.957 153.711 245.305 154.458L249.003 162.417C249.349 163.165 249.385 164.02 249.102 164.794C248.819 165.568 248.241 166.198 247.494 166.546Z" fill="#3F3D56"/>
<path d="M184.596 195.8C183.848 196.147 182.994 196.182 182.22 195.9C181.446 195.617 180.816 195.038 180.467 194.291L176.769 186.332C176.423 185.585 176.388 184.73 176.671 183.957C176.955 183.183 177.533 182.554 178.28 182.207C179.027 181.86 179.882 181.823 180.655 182.106C181.429 182.388 182.059 182.966 182.407 183.713L186.105 191.672C186.452 192.42 186.487 193.274 186.204 194.048C185.921 194.822 185.343 195.452 184.596 195.8Z" fill="#3F3D56"/>
<path d="M241.797 149.156L217.001 160.676C215.423 158.22 210.664 145.635 211.732 141.9L212.257 137.723L227.062 130.46L230.343 133.204C234.965 131.641 241.759 143.095 241.797 149.156Z" fill="#E6E6E6"/>
<path d="M230.285 148.357L224.015 151.27C222.805 151.832 220.964 150.446 219.911 148.181C218.859 145.916 218.987 143.615 220.197 143.053L226.467 140.14C227.677 139.577 229.519 140.963 230.571 143.229C231.623 145.494 231.495 147.795 230.285 148.357Z" fill="#3F3D56"/>
<path d="M177.107 163.348L174.708 158.068L176.089 157.431L178.481 162.694L213.117 239.49L211.737 240.131" fill="#3F3D56"/>
<path d="M200.828 167.88L176.032 179.4C172.374 177.512 166.784 165.153 170.763 160.625L171.288 156.447L186.093 149.184L189.374 151.928C192.775 152.972 199.398 164.793 200.828 167.88Z" fill="#E6E6E6"/>
<path d="M188.806 165.983L182.535 168.896C181.325 169.458 179.599 168.319 178.687 166.356C177.775 164.394 178.018 162.339 179.228 161.777L185.498 158.864C186.708 158.302 188.435 159.441 189.347 161.404C190.258 163.366 190.016 165.421 188.806 165.983Z" fill="#3F3D56"/>
<path d="M63.1386 112.574C83.9407 112.574 100.804 95.7106 100.804 74.9085C100.804 54.1064 83.9407 37.243 63.1386 37.243C42.3365 37.243 25.4731 54.1064 25.4731 74.9085C25.4731 95.7106 42.3365 112.574 63.1386 112.574Z" fill="#FF6584"/>
<path opacity="0.3" d="M217.572 114.139L240.461 47.2884L215.328 113.338C215.203 113.495 215.118 113.679 215.079 113.876C215.04 114.072 215.049 114.275 215.104 114.467C215.159 114.659 215.259 114.836 215.396 114.982C215.533 115.128 215.703 115.239 215.891 115.306C216.08 115.373 216.281 115.394 216.48 115.368C216.678 115.342 216.867 115.268 217.031 115.154C217.196 115.04 217.331 114.888 217.425 114.712C217.519 114.535 217.569 114.339 217.572 114.139H217.572Z" fill="#F0F0F0"/>
<path d="M275.918 74.2916C271.438 75.7808 266.47 77.2436 261.016 78.6801C232.805 86.1075 194.992 91.9012 154.542 94.9943C114.091 98.0873 75.8364 98.1097 46.8244 95.058C32.6918 93.5712 21.5136 91.4329 13.6007 88.702C5.22308 85.8112 0.821051 82.3275 0.5167 78.3482C-0.0759792 70.5958 15.2218 63.7726 28.1595 59.4138L28.5099 60.4534C10.743 66.4391 1.19011 72.7647 1.61072 78.2646C2.14619 85.2696 18.6678 90.9927 46.9392 93.9669C75.8874 97.012 114.072 96.9886 154.458 93.9006C194.844 90.8123 232.588 85.03 260.737 77.6191C288.227 70.382 303.687 62.2132 303.151 55.208C302.706 49.3919 291.242 44.4165 270.869 41.1978L271.041 40.1143C285.843 42.4531 303.62 46.9556 304.245 55.1244C304.549 59.1037 300.728 63.216 292.887 67.347C288.418 69.7017 282.739 72.0249 275.918 74.2916Z" fill="#3F3D56"/>
<path d="M286.986 141.095C289.147 141.095 290.9 139.343 290.9 137.181C290.9 135.02 289.147 133.268 286.986 133.268C284.824 133.268 283.072 135.02 283.072 137.181C283.072 139.343 284.824 141.095 286.986 141.095Z" fill="#FF6584"/>
<path d="M311.853 247.143C314.014 247.143 315.766 245.391 315.766 243.23C315.766 241.068 314.014 239.316 311.853 239.316C309.691 239.316 307.939 241.068 307.939 243.23C307.939 245.391 309.691 247.143 311.853 247.143Z" fill="#F2F2F2"/>
<path d="M178.378 270.973C182.592 270.973 186.008 267.556 186.008 263.342C186.008 259.128 182.592 255.712 178.378 255.712C174.164 255.712 170.748 259.128 170.748 263.342C170.748 267.556 174.164 270.973 178.378 270.973Z" fill="#F2F2F2"/>
<path d="M120.234 169.984C122.396 169.984 124.148 168.232 124.148 166.07C124.148 163.909 122.396 162.157 120.234 162.157C118.073 162.157 116.321 163.909 116.321 166.07C116.321 168.232 118.073 169.984 120.234 169.984Z" fill="#3F3D56"/>
<path d="M251.808 175.078L268.693 179.449L279.05 199.791L261.541 200.478L251.808 175.078Z" fill="#E6E6E6"/>
<path d="M212.833 145.752L222.126 155.051L245.73 206.084L241.384 209.838L212.833 145.752Z" fill="#CCCCCC"/>
<path d="M192.625 154.181L193.354 167.308L215.633 218.933L221.329 218.199L192.625 154.181Z" fill="#CCCCCC"/>
<path d="M192.017 207.21L182.923 222.094L189.627 243.914L202.687 232.232L192.017 207.21Z" fill="#E6E6E6"/>
<path d="M272.351 216.356C267.629 216.356 262.454 216.177 256.825 215.821C227.712 213.972 190.001 207.544 150.64 197.722C111.278 187.9 74.9686 175.856 48.3997 163.811C35.4572 157.942 25.5239 152.388 18.8761 147.301C11.8377 141.915 8.75907 137.221 9.72523 133.349C11.6078 125.805 28.2768 124.155 41.9288 124.099L41.9335 125.196C23.1856 125.273 12.1252 128.263 10.7898 133.615C9.08869 140.431 22.9622 151.073 48.8527 162.811C75.3632 174.831 111.606 186.851 150.905 196.658C190.204 206.464 227.846 212.881 256.895 214.726C285.264 216.528 302.512 213.651 304.213 206.835C305.625 201.175 296.315 192.838 277.997 183.359L278.501 182.384C291.811 189.272 307.261 199.152 305.277 207.101C304.311 210.973 299.388 213.67 290.644 215.117C285.66 215.942 279.538 216.356 272.351 216.356Z" fill="#3F3D56"/>
</g>
<defs>
<linearGradient id="paint0_linear_7549_2460" x1="330.5" y1="258.754" x2="2.36038" y2="156.059" gradientUnits="userSpaceOnUse">
<stop stop-color="#2563EB"/>
<stop offset="1" stop-color="#223D77"/>
</linearGradient>
<clipPath id="clip0_7549_2460">
<rect width="330" height="302.131" fill="white" transform="translate(0.5)"/>
</clipPath>
</defs>
</svg>
