<svg width="30" height="29" viewBox="0 0 30 29" fill="none" xmlns="http://www.w3.org/2000/svg">
<path d="M29.0176 23.6973L23.7602 13.9748C24.2966 12.7574 24.5966 11.4121 24.5966 9.99664C24.5966 4.54153 20.1742 0.119587 14.7196 0.119587C9.26358 0.119587 4.84164 4.54198 4.84164 9.99664C4.84164 11.4462 5.15653 12.8217 5.71713 14.0615L0.436316 23.6928C0.26604 24.0023 0.29434 24.3841 0.507261 24.6667C0.720632 24.9484 1.08089 25.0808 1.42495 25L5.93449 23.9655L7.47795 28.2644C7.59833 28.5986 7.90334 28.8304 8.25687 28.8564C8.2798 28.8582 8.30178 28.8591 8.32335 28.8591C8.48579 28.859 8.64519 28.8149 8.78456 28.7315C8.92394 28.648 9.03808 28.5284 9.11484 28.3852L13.7106 19.823C14.0457 19.8569 14.3823 19.8739 14.7191 19.8737C15.0313 19.8737 15.3394 19.8576 15.644 19.8288L20.3395 28.392C20.4226 28.5437 20.5478 28.6683 20.7 28.7506C20.8522 28.8329 21.0249 28.8695 21.1974 28.856C21.5501 28.8277 21.8537 28.5963 21.9732 28.2639L23.5166 23.965L28.0262 24.9996C28.3721 25.0831 28.7287 24.9488 28.9421 24.668C29.1564 24.3877 29.1852 24.0077 29.0176 23.6973ZM8.4868 25.7573L7.35655 22.6084C7.20203 22.1803 6.75375 21.931 6.30991 22.0366L2.97459 22.8016L6.77624 15.8677C8.02816 17.5589 9.807 18.8347 11.8702 19.4555L8.4868 25.7573ZM23.1411 22.0365C22.6955 21.9314 22.249 22.1803 22.0944 22.6083L20.9566 25.7802L17.4991 19.4756C19.6171 18.8553 21.4391 17.5459 22.7072 15.8052L26.493 22.8051L23.1411 22.0365Z" fill="#F79429"/>
<path d="M14.1871 13.2193C13.8271 13.2193 13.4538 13.1726 13.0671 13.0793C12.6805 12.9859 12.3438 12.8459 12.0571 12.6593C11.9238 12.5726 11.8338 12.4726 11.7871 12.3593C11.7405 12.2459 11.7271 12.1393 11.7471 12.0393C11.7738 11.9326 11.8238 11.8426 11.8971 11.7693C11.9771 11.6959 12.0738 11.6526 12.1871 11.6393C12.3071 11.6259 12.4371 11.6559 12.5771 11.7293C12.8505 11.8759 13.1138 11.9826 13.3671 12.0493C13.6205 12.1093 13.8805 12.1393 14.1471 12.1393C14.4405 12.1393 14.6871 12.0993 14.8871 12.0193C15.0871 11.9393 15.2371 11.8193 15.3371 11.6593C15.4438 11.4993 15.4971 11.3059 15.4971 11.0793C15.4971 10.7459 15.3838 10.4993 15.1571 10.3393C14.9371 10.1726 14.6138 10.0893 14.1871 10.0893H13.5471C13.3605 10.0893 13.2171 10.0426 13.1171 9.94926C13.0238 9.85593 12.9771 9.72593 12.9771 9.55926C12.9771 9.3926 13.0238 9.2626 13.1171 9.16926C13.2171 9.07593 13.3605 9.02926 13.5471 9.02926H14.0671C14.3205 9.02926 14.5371 8.98926 14.7171 8.90926C14.8971 8.8226 15.0371 8.7026 15.1371 8.54926C15.2371 8.39593 15.2871 8.20926 15.2871 7.98926C15.2871 7.6826 15.1838 7.44926 14.9771 7.28926C14.7771 7.12926 14.4838 7.04926 14.0971 7.04926C13.8505 7.04926 13.6171 7.07926 13.3971 7.13926C13.1838 7.1926 12.9471 7.29593 12.6871 7.44926C12.5671 7.5226 12.4505 7.5526 12.3371 7.53926C12.2305 7.52593 12.1405 7.4826 12.0671 7.40926C11.9938 7.33593 11.9438 7.24926 11.9171 7.14926C11.8905 7.0426 11.8971 6.93593 11.9371 6.82926C11.9771 6.71593 12.0605 6.61926 12.1871 6.53926C12.4738 6.3526 12.7905 6.2126 13.1371 6.11926C13.4838 6.01926 13.8405 5.96926 14.2071 5.96926C14.6938 5.96926 15.1105 6.04593 15.4571 6.19926C15.8038 6.34593 16.0671 6.55926 16.2471 6.83926C16.4338 7.1126 16.5271 7.44593 16.5271 7.83926C16.5271 8.11926 16.4738 8.37593 16.3671 8.60926C16.2605 8.83593 16.1105 9.02926 15.9171 9.18926C15.7238 9.34926 15.4905 9.4626 15.2171 9.52926V9.40926C15.6971 9.48926 16.0705 9.68926 16.3371 10.0093C16.6038 10.3226 16.7371 10.7159 16.7371 11.1893C16.7371 11.6026 16.6338 11.9626 16.4271 12.2693C16.2205 12.5759 15.9271 12.8126 15.5471 12.9793C15.1671 13.1393 14.7138 13.2193 14.1871 13.2193Z" fill="white"/>
</svg>
