<svg width="30" height="29" viewBox="0 0 30 29" fill="none" xmlns="http://www.w3.org/2000/svg">
<path d="M29.044 23.6971L23.7866 13.9745C24.3229 12.7572 24.623 11.4118 24.623 9.9964C24.623 4.54129 20.2006 0.119347 14.746 0.119347C9.28995 0.119347 4.86801 4.54174 4.86801 9.9964C4.86801 11.446 5.1829 12.8214 5.7435 14.0612L0.462683 23.6926C0.292407 24.0021 0.320707 24.3839 0.533629 24.6664C0.747 24.9481 1.10726 25.0806 1.45132 24.9998L5.96086 23.9653L7.50432 28.2641C7.6247 28.5983 7.92971 28.8301 8.28323 28.8562C8.30617 28.858 8.32815 28.8589 8.34971 28.8589C8.51216 28.8588 8.67156 28.8147 8.81093 28.7312C8.9503 28.6478 9.06445 28.5281 9.14121 28.385L13.737 19.8227C14.0721 19.8567 14.4087 19.8736 14.7454 19.8735C15.0576 19.8735 15.3658 19.8573 15.6703 19.8286L20.3658 28.3917C20.4489 28.5435 20.5741 28.6681 20.7263 28.7504C20.8785 28.8327 21.0513 28.8693 21.2238 28.8557C21.5764 28.8274 21.8801 28.5961 21.9996 28.2637L23.543 23.9648L28.0526 24.9993C28.3984 25.0828 28.7551 24.9485 28.9685 24.6678C29.1827 24.3875 29.2115 24.0075 29.044 23.6971ZM8.51317 25.7571L7.38292 22.6082C7.22839 22.1801 6.78012 21.9308 6.33628 22.0363L3.00095 22.8013L6.80261 15.8674C8.05453 17.5587 9.83337 18.8344 11.8966 19.4552L8.51317 25.7571ZM23.1675 22.0363C22.7218 21.9312 22.2753 22.18 22.1208 22.6081L20.983 25.7799L17.5254 19.4754C19.6434 18.855 21.4654 17.5456 22.7335 15.805L26.5194 22.8049L23.1675 22.0363Z" fill="#CECDD2"/>
<path d="M12.6835 13.119C12.4702 13.119 12.3135 13.0724 12.2135 12.979C12.1202 12.879 12.0735 12.7357 12.0735 12.549C12.0735 12.4357 12.1035 12.3257 12.1635 12.219C12.2235 12.1124 12.3102 11.999 12.4235 11.879L14.4335 9.73902C14.7402 9.41902 14.9602 9.12902 15.0935 8.86902C15.2268 8.60235 15.2935 8.33569 15.2935 8.06902C15.2935 7.73569 15.1868 7.48235 14.9735 7.30902C14.7668 7.13568 14.4635 7.04902 14.0635 7.04902C13.8368 7.04902 13.6102 7.08235 13.3835 7.14902C13.1568 7.20902 12.9268 7.31569 12.6935 7.46902C12.5735 7.54902 12.4602 7.58235 12.3535 7.56902C12.2535 7.55568 12.1635 7.51235 12.0835 7.43902C12.0102 7.36568 11.9602 7.27568 11.9335 7.16902C11.9068 7.06235 11.9102 6.95569 11.9435 6.84902C11.9835 6.73568 12.0635 6.63902 12.1835 6.55902C12.4702 6.36568 12.7902 6.21902 13.1435 6.11902C13.5035 6.01902 13.8635 5.96902 14.2235 5.96902C14.7302 5.96902 15.1568 6.04568 15.5035 6.19902C15.8502 6.35235 16.1135 6.57569 16.2935 6.86902C16.4735 7.16235 16.5635 7.51902 16.5635 7.93902C16.5635 8.21902 16.5168 8.49235 16.4235 8.75902C16.3368 9.02568 16.2002 9.29568 16.0135 9.56902C15.8335 9.84235 15.5968 10.1324 15.3035 10.439L13.4235 12.399V12.059H16.3635C16.5435 12.059 16.6802 12.1024 16.7735 12.189C16.8668 12.2757 16.9135 12.4057 16.9135 12.579C16.9135 12.7524 16.8668 12.8857 16.7735 12.979C16.6802 13.0724 16.5435 13.119 16.3635 13.119H12.6835Z" fill="white"/>
</svg>
