<svg width="30" height="30" viewBox="0 0 30 30" fill="none" xmlns="http://www.w3.org/2000/svg">
<path d="M29.5311 23.911L24.2737 14.1885C24.81 12.9712 25.1101 11.6258 25.1101 10.2104C25.1101 4.75528 20.6877 0.333336 15.233 0.333336C9.77701 0.333336 5.35507 4.75573 5.35507 10.2104C5.35507 11.66 5.66996 13.0354 6.23056 14.2752L0.949743 23.9066C0.779468 24.2161 0.807767 24.5979 1.02069 24.8804C1.23406 25.1621 1.59432 25.2946 1.93838 25.2138L6.44792 24.1792L7.99138 28.4781C8.11176 28.8123 8.41677 29.0441 8.77029 29.0702C8.79323 29.072 8.81521 29.0729 8.83677 29.0729C8.99922 29.0728 9.15862 29.0287 9.29799 28.9452C9.43737 28.8618 9.55151 28.7421 9.62827 28.5989L14.2241 20.0367C14.5591 20.0707 14.8957 20.0876 15.2325 20.0875C15.5447 20.0875 15.8528 20.0713 16.1574 20.0426L20.8529 28.6057C20.936 28.7575 21.0612 28.882 21.2134 28.9644C21.3656 29.0467 21.5384 29.0833 21.7109 29.0697C22.0635 29.0414 22.3672 28.8101 22.4866 28.4777L24.0301 24.1788L28.5396 25.2133C28.8855 25.2968 29.2422 25.1625 29.4555 24.8818C29.6698 24.6015 29.6986 24.2214 29.5311 23.911ZM9.00023 25.9711L7.86998 22.8222C7.71545 22.3941 7.26718 22.1448 6.82334 22.2503L3.48802 23.0153L7.28967 16.0814C8.54159 17.7727 10.3204 19.0484 12.3836 19.6692L9.00023 25.9711ZM23.6545 22.2503C23.2089 22.1452 22.7624 22.394 22.6079 22.8221L21.47 25.9939L18.0125 19.6894C20.1305 19.069 21.9525 17.7596 23.2206 16.019L27.0065 23.0189L23.6545 22.2503Z" fill="#FCC417"/>
<path d="M13.4006 13.333C13.2272 13.333 13.0906 13.2863 12.9906 13.193C12.8972 13.093 12.8506 12.9597 12.8506 12.793C12.8506 12.6197 12.8972 12.4897 12.9906 12.403C13.0906 12.3163 13.2272 12.273 13.4006 12.273H14.5206V7.36301H15.1406L13.6706 8.25301C13.5439 8.32634 13.4239 8.35634 13.3106 8.34301C13.2039 8.32301 13.1106 8.27634 13.0306 8.20301C12.9572 8.12301 12.9072 8.02967 12.8806 7.92301C12.8539 7.81634 12.8606 7.70967 12.9006 7.60301C12.9472 7.48967 13.0339 7.39634 13.1606 7.32301L14.5406 6.49301C14.6739 6.41301 14.8072 6.34634 14.9406 6.29301C15.0739 6.23301 15.1972 6.20301 15.3106 6.20301C15.4506 6.20301 15.5672 6.24301 15.6606 6.32301C15.7539 6.39634 15.8006 6.51967 15.8006 6.69301V12.273H16.8206C16.9939 12.273 17.1272 12.3163 17.2206 12.403C17.3206 12.4897 17.3706 12.6197 17.3706 12.793C17.3706 12.9663 17.3206 13.0997 17.2206 13.193C17.1272 13.2863 16.9939 13.333 16.8206 13.333H13.4006Z" fill="white"/>
</svg>
