<svg width="25" height="24" viewBox="0 0 25 24" fill="none" xmlns="http://www.w3.org/2000/svg">
<path d="M3.26123 12L5.26123 10M5.26123 10L12.2612 3L19.2612 10M5.26123 10V20C5.26123 20.2652 5.36659 20.5196 5.55412 20.7071C5.74166 20.8946 5.99601 21 6.26123 21H9.26123M19.2612 10L21.2612 12M19.2612 10V20C19.2612 20.2652 19.1559 20.5196 18.9683 20.7071C18.7808 20.8946 18.5264 21 18.2612 21H15.2612M9.26123 21C9.52645 21 9.7808 20.8946 9.96834 20.7071C10.1559 20.5196 10.2612 20.2652 10.2612 20V16C10.2612 15.7348 10.3666 15.4804 10.5541 15.2929C10.7417 15.1054 10.996 15 11.2612 15H13.2612C13.5264 15 13.7808 15.1054 13.9683 15.2929C14.1559 15.4804 14.2612 15.7348 14.2612 16V20C14.2612 20.2652 14.3666 20.5196 14.5541 20.7071C14.7417 20.8946 14.996 21 15.2612 21M9.26123 21H15.2612" stroke="#EFF6FF" stroke-width="2" stroke-linecap="round" stroke-linejoin="round"/>
</svg>
