<svg width="158" height="32" viewBox="0 0 158 32" fill="none" xmlns="http://www.w3.org/2000/svg">
<path d="M23.9619 28.3318C23.6129 28.5418 24.4853 28.0538 23.9619 28.3318V28.3318Z" fill="white"/>
<path d="M27.5224 20.0193V18.434V14.3142C27.5224 14.3142 27.5224 14.1634 27.5224 13.6488V5.80259L27.3834 5.73161C26.3364 5.10167 24.7276 4.19371 23.0862 3.25028L21.0957 2.09685V12.9242H23.2961V6.0096L25.322 7.16303V14.9176H19.1054V1.29242C18.3364 0.872457 17.603 0.452496 16.8695 0V14.9176H10.6529V0L9.70942 0.558969C9.04694 0.943443 8.8015 1.08244 8.59151 1.22144L8.45249 1.29242V14.9176H2.23588V7.16303L4.22626 6.0096V12.9242H6.42661V2.09685C4.29427 3.31829 2.12939 4.57819 0 5.79963V26.2684C2.13235 27.5253 4.29722 28.7497 6.42661 30.0067V19.1438H4.22626V26.0584L2.23588 24.905V17.1505H8.45249V30.7401L8.59151 30.8111C9.04401 31.0891 8.97599 31.0566 9.77747 31.5091L10.6499 32V17.1534H16.8666V32L19.1024 30.7431V17.1534H25.319V24.9079L23.2932 26.0614V19.1468H21.0928V30.0096L23.9586 28.3327L27.5194 26.2713V20.0193H27.5224Z" fill="white"/>
<path d="M44.228 23.2C43.1614 23.2 42.168 23.0267 41.248 22.68C40.3414 22.32 39.548 21.82 38.868 21.18C38.2014 20.5267 37.6814 19.76 37.308 18.88C36.9347 18 36.748 17.04 36.748 16C36.748 14.96 36.9347 14 37.308 13.12C37.6814 12.24 38.208 11.48 38.888 10.84C39.568 10.1867 40.3614 9.68667 41.268 9.34C42.1747 8.98 43.168 8.8 44.248 8.8C45.3947 8.8 46.4414 9 47.388 9.4C48.3347 9.78667 49.1347 10.3667 49.788 11.14L48.108 12.72C47.6014 12.1733 47.0347 11.7667 46.408 11.5C45.7814 11.22 45.1014 11.08 44.368 11.08C43.6347 11.08 42.9614 11.2 42.348 11.44C41.748 11.68 41.2214 12.02 40.768 12.46C40.328 12.9 39.9814 13.42 39.728 14.02C39.488 14.62 39.368 15.28 39.368 16C39.368 16.72 39.488 17.38 39.728 17.98C39.9814 18.58 40.328 19.1 40.768 19.54C41.2214 19.98 41.748 20.32 42.348 20.56C42.9614 20.8 43.6347 20.92 44.368 20.92C45.1014 20.92 45.7814 20.7867 46.408 20.52C47.0347 20.24 47.6014 19.82 48.108 19.26L49.788 20.86C49.1347 21.62 48.3347 22.2 47.388 22.6C46.4414 23 45.388 23.2 44.228 23.2ZM56.4291 23.14C55.3358 23.14 54.3625 22.9067 53.5091 22.44C52.6558 21.96 51.9825 21.3067 51.4891 20.48C50.9958 19.6533 50.7491 18.7133 50.7491 17.66C50.7491 16.5933 50.9958 15.6533 51.4891 14.84C51.9825 14.0133 52.6558 13.3667 53.5091 12.9C54.3625 12.4333 55.3358 12.2 56.4291 12.2C57.5358 12.2 58.5158 12.4333 59.3691 12.9C60.2358 13.3667 60.9091 14.0067 61.3891 14.82C61.8825 15.6333 62.1291 16.58 62.1291 17.66C62.1291 18.7133 61.8825 19.6533 61.3891 20.48C60.9091 21.3067 60.2358 21.96 59.3691 22.44C58.5158 22.9067 57.5358 23.14 56.4291 23.14ZM56.4291 21C57.0425 21 57.5891 20.8667 58.0691 20.6C58.5491 20.3333 58.9225 19.9467 59.1891 19.44C59.4691 18.9333 59.6091 18.34 59.6091 17.66C59.6091 16.9667 59.4691 16.3733 59.1891 15.88C58.9225 15.3733 58.5491 14.9867 58.0691 14.72C57.5891 14.4533 57.0491 14.32 56.4491 14.32C55.8358 14.32 55.2891 14.4533 54.8091 14.72C54.3425 14.9867 53.9691 15.3733 53.6891 15.88C53.4091 16.3733 53.2691 16.9667 53.2691 17.66C53.2691 18.34 53.4091 18.9333 53.6891 19.44C53.9691 19.9467 54.3425 20.3333 54.8091 20.6C55.2891 20.8667 55.8291 21 56.4291 21ZM69.0398 23.14C68.0131 23.14 67.0864 22.9133 66.2598 22.46C65.4464 21.9933 64.8064 21.3533 64.3398 20.54C63.8731 19.7267 63.6398 18.7667 63.6398 17.66C63.6398 16.5533 63.8731 15.5933 64.3398 14.78C64.8064 13.9667 65.4464 13.3333 66.2598 12.88C67.0864 12.4267 68.0131 12.2 69.0398 12.2C69.9331 12.2 70.7331 12.4 71.4398 12.8C72.1464 13.1867 72.7064 13.78 73.1198 14.58C73.5331 15.38 73.7398 16.4067 73.7398 17.66C73.7398 18.9 73.5398 19.9267 73.1398 20.74C72.7398 21.54 72.1864 22.14 71.4798 22.54C70.7731 22.94 69.9598 23.14 69.0398 23.14ZM69.3398 21C69.9398 21 70.4731 20.8667 70.9398 20.6C71.4198 20.3333 71.7998 19.9467 72.0798 19.44C72.3731 18.9333 72.5198 18.34 72.5198 17.66C72.5198 16.9667 72.3731 16.3733 72.0798 15.88C71.7998 15.3733 71.4198 14.9867 70.9398 14.72C70.4731 14.4533 69.9398 14.32 69.3398 14.32C68.7398 14.32 68.1998 14.4533 67.7198 14.72C67.2531 14.9867 66.8731 15.3733 66.5798 15.88C66.2998 16.3733 66.1598 16.9667 66.1598 17.66C66.1598 18.34 66.2998 18.9333 66.5798 19.44C66.8731 19.9467 67.2531 20.3333 67.7198 20.6C68.1998 20.8667 68.7398 21 69.3398 21ZM72.5798 23V20.48L72.6798 17.64L72.4798 14.8V8.16H74.9598V23H72.5798ZM83.2702 23.14C82.0836 23.14 81.0436 22.9067 80.1502 22.44C79.2702 21.96 78.5836 21.3067 78.0902 20.48C77.6102 19.6533 77.3702 18.7133 77.3702 17.66C77.3702 16.5933 77.6036 15.6533 78.0702 14.84C78.5502 14.0133 79.2036 13.3667 80.0302 12.9C80.8702 12.4333 81.8236 12.2 82.8902 12.2C83.9302 12.2 84.8569 12.4267 85.6702 12.88C86.4836 13.3333 87.1236 13.9733 87.5902 14.8C88.0569 15.6267 88.2902 16.6 88.2902 17.72C88.2902 17.8267 88.2836 17.9467 88.2702 18.08C88.2702 18.2133 88.2636 18.34 88.2502 18.46L79.3502 18.46V16.8L86.9302 16.8L85.9502 17.32C85.9636 16.7067 85.8369 16.1667 85.5702 15.7C85.3036 15.2333 84.9369 14.8667 84.4702 14.6C84.0169 14.3333 83.4902 14.2 82.8902 14.2C82.2769 14.2 81.7369 14.3333 81.2702 14.6C80.8169 14.8667 80.4569 15.24 80.1902 15.72C79.9369 16.1867 79.8102 16.74 79.8102 17.38V17.78C79.8102 18.42 79.9569 18.9867 80.2502 19.48C80.5436 19.9733 80.9569 20.3533 81.4902 20.62C82.0236 20.8867 82.6369 21.02 83.3302 21.02C83.9302 21.02 84.4702 20.9267 84.9502 20.74C85.4302 20.5533 85.8569 20.26 86.2302 19.86L87.5702 21.4C87.0902 21.96 86.4836 22.3933 85.7502 22.7C85.0302 22.9933 84.2036 23.14 83.2702 23.14ZM106.299 9H108.899V23H106.299V9ZM99.059 23H96.459V9H99.059V23ZM106.499 17H98.839V14.78H106.499V17ZM117.21 23.14C116.117 23.14 115.144 22.9067 114.29 22.44C113.437 21.96 112.764 21.3067 112.27 20.48C111.777 19.6533 111.53 18.7133 111.53 17.66C111.53 16.5933 111.777 15.6533 112.27 14.84C112.764 14.0133 113.437 13.3667 114.29 12.9C115.144 12.4333 116.117 12.2 117.21 12.2C118.317 12.2 119.297 12.4333 120.15 12.9C121.017 13.3667 121.69 14.0067 122.17 14.82C122.664 15.6333 122.91 16.58 122.91 17.66C122.91 18.7133 122.664 19.6533 122.17 20.48C121.69 21.3067 121.017 21.96 120.15 22.44C119.297 22.9067 118.317 23.14 117.21 23.14ZM117.21 21C117.824 21 118.37 20.8667 118.85 20.6C119.33 20.3333 119.704 19.9467 119.97 19.44C120.25 18.9333 120.39 18.34 120.39 17.66C120.39 16.9667 120.25 16.3733 119.97 15.88C119.704 15.3733 119.33 14.9867 118.85 14.72C118.37 14.4533 117.83 14.32 117.23 14.32C116.617 14.32 116.07 14.4533 115.59 14.72C115.124 14.9867 114.75 15.3733 114.47 15.88C114.19 16.3733 114.05 16.9667 114.05 17.66C114.05 18.34 114.19 18.9333 114.47 19.44C114.75 19.9467 115.124 20.3333 115.59 20.6C116.07 20.8667 116.61 21 117.21 21ZM138.781 12.2C139.634 12.2 140.388 12.3667 141.041 12.7C141.708 13.0333 142.228 13.5467 142.601 14.24C142.974 14.92 143.161 15.8 143.161 16.88V23H140.661V17.2C140.661 16.2533 140.454 15.5467 140.041 15.08C139.628 14.6133 139.034 14.38 138.261 14.38C137.714 14.38 137.228 14.5 136.801 14.74C136.388 14.98 136.061 15.3333 135.821 15.8C135.594 16.2667 135.481 16.86 135.481 17.58V23H132.981V17.2C132.981 16.2533 132.774 15.5467 132.361 15.08C131.948 14.6133 131.354 14.38 130.581 14.38C130.034 14.38 129.548 14.5 129.121 14.74C128.708 14.98 128.381 15.3333 128.141 15.8C127.914 16.2667 127.801 16.86 127.801 17.58V23H125.301V12.32H127.681V15.16L127.261 14.32C127.621 13.6267 128.141 13.1 128.821 12.74C129.514 12.38 130.301 12.2 131.181 12.2C132.181 12.2 133.048 12.4467 133.781 12.94C134.528 13.4333 135.021 14.18 135.261 15.18L134.281 14.84C134.628 14.04 135.201 13.4 136.001 12.92C136.801 12.44 137.728 12.2 138.781 12.2ZM151.395 23.14C150.209 23.14 149.169 22.9067 148.275 22.44C147.395 21.96 146.709 21.3067 146.215 20.48C145.735 19.6533 145.495 18.7133 145.495 17.66C145.495 16.5933 145.729 15.6533 146.195 14.84C146.675 14.0133 147.329 13.3667 148.155 12.9C148.995 12.4333 149.949 12.2 151.015 12.2C152.055 12.2 152.982 12.4267 153.795 12.88C154.609 13.3333 155.249 13.9733 155.715 14.8C156.182 15.6267 156.415 16.6 156.415 17.72C156.415 17.8267 156.409 17.9467 156.395 18.08C156.395 18.2133 156.389 18.34 156.375 18.46H147.475V16.8H155.055L154.075 17.32C154.089 16.7067 153.962 16.1667 153.695 15.7C153.429 15.2333 153.062 14.8667 152.595 14.6C152.142 14.3333 151.615 14.2 151.015 14.2C150.402 14.2 149.862 14.3333 149.395 14.6C148.942 14.8667 148.582 15.24 148.315 15.72C148.062 16.1867 147.935 16.74 147.935 17.38V17.78C147.935 18.42 148.082 18.9867 148.375 19.48C148.669 19.9733 149.082 20.3533 149.615 20.62C150.149 20.8867 150.762 21.02 151.455 21.02C152.055 21.02 152.595 20.9267 153.075 20.74C153.555 20.5533 153.982 20.26 154.355 19.86L155.695 21.4C155.215 21.96 154.609 22.3933 153.875 22.7C153.155 22.9933 152.329 23.14 151.395 23.14Z" fill="white"/>
</svg>
