<svg width="25" height="24" viewBox="0 0 25 24" fill="none" xmlns="http://www.w3.org/2000/svg">
<path d="M21.2612 13.255C18.4017 14.4112 15.3457 15.0038 12.2612 15C9.07823 15 6.04123 14.38 3.26123 13.255M12.2612 12H12.2712M16.2612 6V4C16.2612 3.46957 16.0505 2.96086 15.6754 2.58579C15.3004 2.21071 14.7917 2 14.2612 2H10.2612C9.7308 2 9.22209 2.21071 8.84702 2.58579C8.47194 2.96086 8.26123 3.46957 8.26123 4V6H16.2612ZM5.26123 20H19.2612C19.7917 20 20.3004 19.7893 20.6754 19.4142C21.0505 19.0391 21.2612 18.5304 21.2612 18V8C21.2612 7.46957 21.0505 6.96086 20.6754 6.58579C20.3004 6.21071 19.7917 6 19.2612 6H5.26123C4.7308 6 4.22209 6.21071 3.84702 6.58579C3.47194 6.96086 3.26123 7.46957 3.26123 8V18C3.26123 18.5304 3.47194 19.0391 3.84702 19.4142C4.22209 19.7893 4.7308 20 5.26123 20Z" stroke="#A1A1AA" stroke-width="2" stroke-linecap="round" stroke-linejoin="round"/>
</svg>
